<?xml version="1.0" standalone="no"?>
<!DOCTYPE svg PUBLIC "-//W3C//DTD SVG 20010904//EN"
 "http://www.w3.org/TR/2001/REC-SVG-20010904/DTD/svg10.dtd">
<svg version="1.0" xmlns="http://www.w3.org/2000/svg"
 width="600.000000pt" height="600.000000pt" viewBox="0 0 600.000000 600.000000"
 preserveAspectRatio="xMidYMid meet">
<metadata>
Created by potrace 1.14, written by Peter Selinger 2001-2017
</metadata>
<g transform="translate(0.000000,600.000000) scale(0.100000,-0.100000)"
fill="#d8ecf3" stroke="none">
<path d="M3770 5386 c0 -8 -811 -2630 -814 -2634 -5 -4 -9 9 -276 880 l-205
668 -402 0 c-222 0 -403 -2 -403 -5 0 -5 620 -1884 866 -2628 l116 -347 301 2
300 3 259 785 c143 432 392 1187 554 1678 l295 892 265 0 264 0 0 355 0 355
-560 0 c-308 0 -560 -2 -560 -4z"/>
</g>
</svg>
